<?xml version="1.0" encoding="UTF-8" standalone="no"?>
<!-- Created with Inkscape (http://www.inkscape.org/) -->

<svg
   xmlns:dc="http://purl.org/dc/elements/1.1/"
   xmlns:cc="http://creativecommons.org/ns#"
   xmlns:rdf="http://www.w3.org/1999/02/22-rdf-syntax-ns#"
   xmlns:svg="http://www.w3.org/2000/svg"
   xmlns="http://www.w3.org/2000/svg"
   xmlns:sodipodi="http://sodipodi.sourceforge.net/DTD/sodipodi-0.dtd"
   xmlns:inkscape="http://www.inkscape.org/namespaces/inkscape"
   width="8.8225384mm"
   height="9.1017752mm"
   viewBox="0 0 8.8225384 9.1017752"
   version="1.1"
   id="svg1721"
   inkscape:version="0.92.2 (5c3e80d, 2017-08-06)"
   sodipodi:docname="emoji-bored.svg">
  <defs
     id="defs1715" />
  <sodipodi:namedview
     id="base"
     pagecolor="#ffffff"
     bordercolor="#666666"
     borderopacity="1.0"
     inkscape:pageopacity="0.0"
     inkscape:pageshadow="2"
     inkscape:zoom="0.35"
     inkscape:cx="-950.47035"
     inkscape:cy="157.2002"
     inkscape:document-units="mm"
     inkscape:current-layer="layer1"
     showgrid="false"
     fit-margin-top="0"
     fit-margin-left="0"
     fit-margin-right="0"
     fit-margin-bottom="0"
     inkscape:window-width="1920"
     inkscape:window-height="1017"
     inkscape:window-x="-8"
     inkscape:window-y="-8"
     inkscape:window-maximized="1" />
  <metadata
     id="metadata1718">
    <rdf:RDF>
      <cc:Work
         rdf:about="">
        <dc:format>image/svg+xml</dc:format>
        <dc:type
           rdf:resource="http://purl.org/dc/dcmitype/StillImage" />
        <dc:title></dc:title>
      </cc:Work>
    </rdf:RDF>
  </metadata>
  <g
     inkscape:label="Layer 1"
     inkscape:groupmode="layer"
     id="layer1"
     transform="translate(-234.46969,-181.32411)">
    <g
       style="display:inline"
       id="g9271"
       transform="translate(149.03432,51.88504)">
      <path
         d="m 94.091403,133.98997 a 4.2447619,4.3843679 0 0 1 -4.20283,4.38416 4.2447619,4.3843679 0 0 1 -4.285865,-4.29754 4.2447619,4.3843679 0 0 1 4.118156,-4.46906 4.2447619,4.3843679 0 0 1 4.367226,4.20925"
         sodipodi:open="true"
         sodipodi:end="6.2436711"
         sodipodi:start="0"
         sodipodi:ry="4.3843679"
         sodipodi:rx="4.2447619"
         sodipodi:cy="133.98997"
         sodipodi:cx="89.846642"
         sodipodi:type="arc"
         id="path9225"
         style="opacity:1;fill:#7d7b7b;fill-opacity:1;fill-rule:nonzero;stroke:#000000;stroke-width:0.333;stroke-miterlimit:4;stroke-dasharray:none;stroke-opacity:1" />
      <path
         sodipodi:nodetypes="cscc"
         inkscape:connector-curvature="0"
         id="path9227"
         d="m 87.176869,136.02065 c 0,0 0.792778,-0.0526 2.70677,-0.059 2.05355,-0.007 2.638586,0.0651 2.638586,0.0651 v 0"
         style="fill:none;stroke:#000000;stroke-width:0.34368593;stroke-linecap:butt;stroke-linejoin:miter;stroke-miterlimit:4;stroke-dasharray:none;stroke-opacity:1" />
      <path
         style="opacity:1;fill:none;fill-opacity:1;fill-rule:nonzero;stroke:#000000;stroke-width:0.252;stroke-miterlimit:4;stroke-dasharray:none;stroke-opacity:1"
         id="path9235"
         sodipodi:type="arc"
         sodipodi:cx="88.166191"
         sodipodi:cy="132.51549"
         sodipodi:rx="1.2695302"
         sodipodi:ry="1.306476"
         sodipodi:start="0"
         sodipodi:end="6.2436711"
         sodipodi:open="true"
         d="m 89.435721,132.51549 a 1.2695302,1.306476 0 0 1 -1.256989,1.30641 1.2695302,1.306476 0 0 1 -1.281823,-1.2806 1.2695302,1.306476 0 0 1 1.231664,-1.33171 1.2695302,1.306476 0 0 1 1.306157,1.25429" />
      <path
         d="m 88.47556,131.60973 a 0.4408083,0.44354975 0 0 1 -0.436454,0.44352 0.4408083,0.44354975 0 0 1 -0.445076,-0.43476 0.4408083,0.44354975 0 0 1 0.42766,-0.45212 0.4408083,0.44354975 0 0 1 0.453526,0.42583"
         sodipodi:open="true"
         sodipodi:end="6.2436711"
         sodipodi:start="0"
         sodipodi:ry="0.44354975"
         sodipodi:rx="0.4408083"
         sodipodi:cy="131.60973"
         sodipodi:cx="88.034752"
         sodipodi:type="arc"
         id="path9237"
         style="opacity:1;fill:#080808;fill-opacity:1;fill-rule:nonzero;stroke:none;stroke-width:0.08652157;stroke-miterlimit:4;stroke-dasharray:none;stroke-opacity:1" />
      <path
         d="m 92.409095,132.46538 a 1.2695302,1.306476 0 0 1 -1.25699,1.30641 1.2695302,1.306476 0 0 1 -1.281823,-1.2806 1.2695302,1.306476 0 0 1 1.231665,-1.33171 1.2695302,1.306476 0 0 1 1.306157,1.25429"
         sodipodi:open="true"
         sodipodi:end="6.2436711"
         sodipodi:start="0"
         sodipodi:ry="1.306476"
         sodipodi:rx="1.2695302"
         sodipodi:cy="132.46538"
         sodipodi:cx="91.139565"
         sodipodi:type="arc"
         id="path9239"
         style="opacity:1;fill:none;fill-opacity:1;fill-rule:nonzero;stroke:#000000;stroke-width:0.252;stroke-miterlimit:4;stroke-dasharray:none;stroke-opacity:1" />
      <path
         style="opacity:1;fill:#080808;fill-opacity:1;fill-rule:nonzero;stroke:none;stroke-width:0.08652157;stroke-miterlimit:4;stroke-dasharray:none;stroke-opacity:1"
         id="path9241"
         sodipodi:type="arc"
         sodipodi:cx="91.161507"
         sodipodi:cy="131.56625"
         sodipodi:rx="0.4408083"
         sodipodi:ry="0.44354975"
         sodipodi:start="0"
         sodipodi:end="6.2436711"
         sodipodi:open="true"
         d="m 91.602315,131.56625 a 0.4408083,0.44354975 0 0 1 -0.436454,0.44353 0.4408083,0.44354975 0 0 1 -0.445077,-0.43476 0.4408083,0.44354975 0 0 1 0.427661,-0.45212 0.4408083,0.44354975 0 0 1 0.453526,0.42583" />
    </g>
  </g>
</svg>
