<?xml version="1.0" encoding="UTF-8"?>
<!-- Svg Vector Icons : http://www.onlinewebfonts.com/icon -->
<!DOCTYPE svg PUBLIC "-//W3C//DTD SVG 1.1//EN" "http://www.w3.org/Graphics/SVG/1.1/DTD/svg11.dtd">
<svg version="1.1" xmlns="http://www.w3.org/2000/svg" xmlns:xlink="http://www.w3.org/1999/xlink" x="0px" y="0px" viewBox="0 0 1000 1000" enable-background="new 0 0 1000 1000" xml:space="preserve">
<metadata> Svg Vector Icons : http://www.onlinewebfonts.com/icon </metadata>
<g><g><path d="M564.9,415.7l29.4-29.4c-0.6-0.6-1.2-1-1.9-1.6h0c0,0,0,0,0,0l-29.1,29.1C563.8,414.4,564.3,415.1,564.9,415.7z M441.9,519.3l-1.7,1.7l-1.7-1.7l1.7-1.7L441.9,519.3z M449.9,527.2l-1.7,1.7l1.8,1.7l1.6-1.6l9.5,9.4l116.2-116.2c1,0.2,2.1,0.3,3.2,0.4l20.7-20.7c0-1.1-0.2-2.1-0.4-3.2l-23.5,23.5c-4.4-0.7-8.6-2.7-12.1-6.1c-0.1-0.1-0.1-0.2-0.2-0.3L451.6,528.9L449.9,527.2z M527.5,348.9c-17.3,17.3-3.5,38.5-30.6,54.2c-27.2,15.6-67.5,7.3-96.5,36.3c-41.2,41.2-42.4,106.7-2.7,146.4c39.7,39.6,105.3,38.5,146.5-2.7c28.9-29.1,9.7-73.5,31.9-100.9c9.3-14,40.5-14,58.5-26.3c25.6-25.5,29-64.7,10.4-94l69.4-69.3c11.2,2.5,23.2-0.4,31.9-9.1l36.4-36.4c13.4-13.4,13.4-35.2,0-48.6c-13.5-13.4-35.2-13.4-48.6,0l-36.4,36.4c-8.7,8.7-11.7,20.8-9.1,31.9l-69.9,69.9C589.7,320.2,552.3,324.2,527.5,348.9z M564.6,385.9c3.6-3.6,8.2-5.4,13-5.8l-18.7,18.8C559.2,394.1,561,389.5,564.6,385.9z M716.7,241.1c-2.3-2.9-2.2-7,0.4-9.7c2.9-2.9,7.5-2.9,10.4,0c2.8,2.9,2.8,7.5,0,10.3c-2.5,2.5-6.1,2.7-8.9,1L581.1,380.1c4,0.4,8,1.9,11.3,4.5h0c0,0,0,0,0,0l133.4-133.4c0.2-0.9,0.6-1.7,1.2-2.4c2.1-2,5.4-2,7.5,0c2.1,2.1,2.1,5.4,0,7.5c-2.1,2.1-5.4,2.1-7.5,0c-0.5-0.5-0.9-1.1-1.1-1.7L594.3,386.2c0.1,0.1,0.3,0.1,0.3,0.3c3.4,3.4,5.5,7.7,6.2,12.1l134.3-134.3c0.3-0.8,0.7-1.6,1.2-2.2c2.2-2.1,5.6-2.1,7.8,0c2.2,2.2,2.2,5.7,0,7.8c-2.1,2.1-5.6,2.1-7.8,0c-0.6-0.6-1-1.3-1.2-2.1l-134,134c0.1,5.4-1.9,10.8-6,14.8c-4.1,4-9.4,6-14.8,5.9L462.8,540.1l-1.7-1.7l-1.7,1.7l1.7,1.7l1.7-1.7l10.4,10.4l-15.1,15l-46.2-46.2l15-15l13.3,13.3L558.8,399c-0.2,1.1-0.2,2.3,0,3.4L442,519.2l8,8l113.4-113.5c-2.7-3.4-4.2-7.4-4.6-11.3l22.2-22.3c-1.1-0.1-2.3-0.1-3.4,0L716.7,241.1z M626,576.2c-1.3-28.8-2.9-57.6-4.9-86.4c-5.4,1.8-10.4,3.8-11.6,5.7l-0.9,1.2c-7.7,9.4-8.8,23.2-10.2,39.2c-1.8,22-3.9,47-24.3,67.4c-24.5,24.4-56.7,37.9-90.6,37.9c-8.5,0-16.7-0.9-24.8-2.5c-32.6,96.1-64.2,192.6-97.6,288.5c-21.9,62.8,77.6,89.6,99.3,27.4c31.8-91.4,61.9-183.3,92.8-274.9c42.6,9,86.9,21.2,109.6,61.4c20.3,36.2-2.3,90.2-15.9,124.2c-28.5,71.1,86.3,101.7,114.4,31.6c28.6-71.5,36.8-144.4,3.9-215.7C740,626.5,683,594.3,626,576.2z M728.7,320.8c-3.4-2-7.5-3.1-11.6-3.8c-4.8-0.2-8.6-0.7-14,0.5c-2,0.5-3.9,1.8-4.9,3.8l-0.2,0.3c-2.5,4.9-3.2,8.2-5.4,12c-1.4,3.3-3,6.2-4.2,8.6c-2.8,4.8-3,14.2-3.3,17.4c-0.3,3.3-1.2,7.3-2.7,11.5c-1.2,4.4-2.9,9.1-4.6,14c-3.2,9.9-7.3,21-7.2,32.4c0,0.7,0.3,1.4,0.6,2c1.1,1.7,3.4,2.1,5.1,1l0.1-0.1c8.7-5.8,17-9.8,26.2-14.5c4.4-2.5,8.9-5.1,13.7-8.2c4.5-3.3,9.1-7.2,13.7-12.2c4.5-5,10.1-10.8,14.3-19c4.1-8.1,4.6-18.7,1-27.1C741.8,330.9,736,324.5,728.7,320.8z M428,386.7c5.5-1.2,11-2.3,16.2-3.2c12.9-2.4,25-4.6,34-9.8c9.8-5.7,10.8-10.8,12.9-21c2-9.7,4.5-21.8,15.7-33c18-18,79.6-11.7,105.1-11.7c0.4,0,0.7,0,1.1,0c-2-13.3-4-26.7-6.4-40c-5.1-73.7-166-57.8-175.4-45.8c-50.7-34.1-103.9-64.5-158.5-92.1c-49.5-25.1-93.2,49.4-43.5,74.5c66.1,33.5,130,70.9,190.2,114.2C422.8,341.4,425.6,364,428,386.7z M485.5,10c47.4,0,85.8,38.4,85.8,85.8c0,47.4-38.4,85.8-85.8,85.8s-85.8-38.4-85.8-85.8C399.7,48.4,438.1,10,485.5,10z"/></g><g/><g/><g/><g/><g/><g/><g/><g/><g/><g/><g/><g/><g/><g/><g/></g>
</svg>