<?xml version="1.0" encoding="UTF-8" standalone="no"?>
<!-- Created with Inkscape (http://www.inkscape.org/) -->

<svg
   xmlns:dc="http://purl.org/dc/elements/1.1/"
   xmlns:cc="http://creativecommons.org/ns#"
   xmlns:rdf="http://www.w3.org/1999/02/22-rdf-syntax-ns#"
   xmlns:svg="http://www.w3.org/2000/svg"
   xmlns="http://www.w3.org/2000/svg"
   xmlns:sodipodi="http://sodipodi.sourceforge.net/DTD/sodipodi-0.dtd"
   xmlns:inkscape="http://www.inkscape.org/namespaces/inkscape"
   width="67.578941mm"
   height="51.703941mm"
   viewBox="0 0 67.578941 51.703941"
   version="1.1"
   id="svg8"
   inkscape:version="0.92.3 (2405546, 2018-03-11)"
   sodipodi:docname="question_picture.svg">
  <defs
     id="defs2" />
  <sodipodi:namedview
     id="base"
     pagecolor="#ffffff"
     bordercolor="#666666"
     borderopacity="1.0"
     inkscape:pageopacity="0.0"
     inkscape:pageshadow="2"
     inkscape:zoom="3.959798"
     inkscape:cx="30.892648"
     inkscape:cy="81.606668"
     inkscape:document-units="mm"
     inkscape:current-layer="layer1"
     showgrid="false"
     inkscape:window-width="3200"
     inkscape:window-height="1675"
     inkscape:window-x="-13"
     inkscape:window-y="-13"
     inkscape:window-maximized="1"
     fit-margin-top="0"
     fit-margin-left="0"
     fit-margin-right="0"
     fit-margin-bottom="0" />
  <metadata
     id="metadata5">
    <rdf:RDF>
      <cc:Work
         rdf:about="">
        <dc:format>image/svg+xml</dc:format>
        <dc:type
           rdf:resource="http://purl.org/dc/dcmitype/StillImage" />
        <dc:title></dc:title>
      </cc:Work>
    </rdf:RDF>
  </metadata>
  <g
     inkscape:label="Calque 1"
     inkscape:groupmode="layer"
     id="layer1"
     transform="translate(-57.397467,-42.566849)">
    <path
       style="opacity:1;vector-effect:none;fill:#ffffff;fill-opacity:1;fill-rule:nonzero;stroke:#000000;stroke-width:7.55905522;stroke-linecap:butt;stroke-linejoin:miter;stroke-miterlimit:4;stroke-dasharray:none;stroke-dashoffset:0;stroke-opacity:1;paint-order:normal"
       d="m 345.71484,164.66211 a 42.857142,42.857142 0 0 0 -36.42187,20.37109 39.999998,39.999998 0 0 0 -15.7207,-3.22851 39.999998,39.999998 0 0 0 -40,40 39.999998,39.999998 0 0 0 0.0449,1.29492 43.214285,43.214285 0 0 0 -32.90235,41.91992 43.214285,43.214285 0 0 0 25.43164,39.3418 41.785712,41.785712 0 0 0 37.23243,27.34375 A 52.142853,52.142853 0 0 0 325,352.51953 52.142853,52.142853 0 0 0 370.05273,326.52734 54.28571,54.28571 0 0 0 390,330.37695 a 54.28571,54.28571 0 0 0 54.28516,-54.28515 54.28571,54.28571 0 0 0 -0.45704,-6.5 52.499999,47.499998 0 0 0 24.74415,-40.28711 52.499999,47.499998 0 0 0 -52.5,-47.5 52.499999,47.499998 0 0 0 -30.875,9.15429 42.857142,42.857142 0 0 0 -39.48243,-26.29687 z"
       transform="scale(0.26458333)"
       id="path815"
       inkscape:connector-curvature="0" />
    <flowRoot
       xml:space="preserve"
       id="flowRoot835"
       style="font-style:normal;font-weight:normal;font-size:80px;line-height:1.25;font-family:sans-serif;letter-spacing:0px;word-spacing:0px;fill:#000000;fill-opacity:1;stroke:none"
       transform="matrix(0.26458333,0,0,0.26458333,6.9490077,0.33408691)"><flowRegion
         id="flowRegion837"><rect
           id="rect839"
           width="87.88327"
           height="88.135811"
           x="296.22723"
           y="221.21107" /></flowRegion><flowPara
         id="flowPara841">??</flowPara></flowRoot>    <g
       aria-label="?"
       style="font-style:normal;font-weight:normal;font-size:21.16666603px;line-height:1.25;font-family:sans-serif;letter-spacing:0px;word-spacing:0px;fill:#000000;fill-opacity:1;stroke:none;stroke-width:0.26458332"
       id="text845">
      <path
         d="m 89.590139,73.648473 h 2.098063 v 2.625163 h -2.098063 z m 2.036051,-1.519287 h -1.97404 v -1.591634 q 0,-1.043864 0.289388,-1.715657 0.289388,-0.671794 1.219564,-1.560629 l 0.930176,-0.91984 q 0.589111,-0.54777 0.847493,-1.033529 0.268718,-0.485758 0.268718,-0.992187 0,-0.919841 -0.682129,-1.488281 -0.671794,-0.568441 -1.788005,-0.568441 -0.816487,0 -1.746663,0.361735 -0.91984,0.361735 -1.922363,1.054199 v -1.943034 q 0.971517,-0.589111 1.963704,-0.878499 1.002523,-0.289388 2.067057,-0.289388 1.901693,0 3.04891,1.002523 1.157552,1.002522 1.157552,2.645833 0,0.785482 -0.37207,1.498616 -0.372071,0.7028 -1.302246,1.591634 l -0.909506,0.888835 q -0.485758,0.485759 -0.692464,0.764811 -0.19637,0.268718 -0.279053,0.5271 -0.06201,0.217041 -0.09302,0.527099 -0.03101,0.310059 -0.03101,0.847494 z"
         style="stroke-width:0.26458332"
         id="path903" />
    </g>
  </g>
</svg>
